VIDEO INFO:


Format                           : AVI
Format/Info                      : Audio Video Interleave
Format profile                   : OpenDML
File size                        : 697 MiB
Duration                         : 1h 37mn
Overall bit rate                 : 996 Kbps
Writing application              : AVI-Mux GUI 1.17.7, Aug  8 2006  20:59:17

Video
ID                               : 0
Format                           : MPEG-4 Visual
Format profile                   : Advanced Simple@L5
Format settings, BVOP            : Yes
Format settings, QPel            : No
Format settings, GMC             : No warppoints
Format settings, Matrix          : Custom
Codec ID                         : XVID
Codec ID/Hint                    : XviD
Duration                         : 1h 37mn
Bit rate                         : 873 Kbps
Width                            : 592 pixels
Height                           : 336 pixels
Display aspect ratio             : 16:9
Frame rate                       : 23.976 fps
Color space                      : YUV
Chroma subsampling               : 4:2:0
Bit depth                        : 8 bits
Scan type                        : Progressive
Compression mode                 : Lossy
Bits/(Pixel*Frame)               : 0.183
Stream size                      : 611 MiB (88%)
Writing library                  : XviD 1.1.2 (UTC 2006-11-01)

Audio
ID                               : 1
Format                           : MPEG Audio
Format version                   : Version 1
Format profile                   : Layer 3
Mode                             : Joint stereo
Codec ID                         : 55
Codec ID/Hint                    : MP3
Duration                         : 1h 37mn
Bit rate mode                    : Variable
Bit rate                         : 114 Kbps
Nominal bit rate                 : 128 Kbps
Channel(s)                       : 2 channels
Sampling rate                    : 48.0 KHz
Compression mode                 : Lossy
Stream size                      : 80.1 MiB (11%)
Alignment                        : Aligned on interleaves
Interleave, duration             : 24 ms (0.58 video frame)
Interleave, preload duration     : 218 ms
Writing library                  : LAME3.98r
Encoding settings                : -m j -V 4 -q 2 -lowpass 17 --abr 128

Text
ID                               : 2
Stream size                      : 57.6 KiB (0%)

-------------------------------------

Verenigde Staten
Thriller
98 minuten

geregisseerd door Geoff Murphy
met Rutger Hauer, Rebecca De Mornay en Ron Silver

Een stel bezoekt Mexico om een nieuwe locatie te voor een meubelzaak te vinden en raken een agent met hun wagen onderweg weer naar huis. Realiserend dat ze hiervoor in Mexico de bak in kunnen gaan, wissen ze hun sporen. Dan duikt er dagen later een man op die ze schijnt hebben te gezien. Hij begint ze te chanteren.

-Ondertiteling (nederlands) zelf vertaald en in de film met de mogelijkheid deze aan/uit te zetten.



